<svg width="100%" height="100%" viewBox="0 0 65536 21845" xmlns="http://www.w3.org/2000/svg">
  <path fill="transparent" stroke="black" stroke-width="1920" stroke-linecap="round" stroke-linejoin="round" d="M 2915 3907 L 4721 11249 L 5767 16948 l 0 0" />
  <path fill="transparent" stroke="black" stroke-width="1920" stroke-linecap="round" stroke-linejoin="round" d="M 3200 3617 L 16224 4003 l 0 0" />
  <path fill="transparent" stroke="black" stroke-width="1920" stroke-linecap="round" stroke-linejoin="round" d="M 4911 12118 L 14513 5452 L 16890 4293 l 0 0" />
  <path fill="transparent" stroke="black" stroke-width="1920" stroke-linecap="round" stroke-linejoin="round" d="M 10615 13181 L 10710 12021 L 11376 11345 L 11851 11249 L 12707 11442 L 14038 12118 L 14988 12408 L 15654 9993 l 0 0" />
  <path fill="transparent" stroke="black" stroke-width="1920" stroke-linecap="round" stroke-linejoin="round" d="M 18031 10379 L 18886 10089 L 22214 7868 l 0 0" />
  <path fill="transparent" stroke="black" stroke-width="1920" stroke-linecap="round" stroke-linejoin="round" d="M 19457 6129 L 22404 7095 L 21738 9510 L 21548 10959 l 0 0" />
  <path fill="transparent" stroke="black" stroke-width="1920" stroke-linecap="round" stroke-linejoin="round" d="M 23925 2458 L 25541 7771 l 0 0" />
  <path fill="transparent" stroke="black" stroke-width="1920" stroke-linecap="round" stroke-linejoin="round" d="M 26016 11152 l 0 0" />
  <path fill="transparent" stroke="black" stroke-width="1920" stroke-linecap="round" stroke-linejoin="round" d="M 30770 7868 L 48928 7771 L 61287 9220 L 62808 9027 l 0 0" />
  <path fill="transparent" stroke="black" stroke-width="1920" stroke-linecap="round" stroke-linejoin="round" d="M 29629 18300 L 62143 18011 l 0 0" />
  <path fill="transparent" stroke="black" stroke-width="1920" stroke-linecap="round" stroke-linejoin="round" d="M 63474 9220 L 62713 16272 L 63093 18397 l 0 0" />
  <path fill="transparent" stroke="black" stroke-width="1920" stroke-linecap="round" stroke-linejoin="round" d="M 30199 7771 L 29724 17528 l 0 0" />
  <path fill="transparent" stroke="black" stroke-width="1920" stroke-linecap="round" stroke-linejoin="round" d="M 29914 12601 L 31626 12311 L 32576 12311 L 32576 13567 L 32386 14340 L 31245 14340 L 31055 14147 L 31435 13567 l 0 0" />
  <path fill="transparent" stroke="black" stroke-width="1920" stroke-linecap="round" stroke-linejoin="round" d="M 32861 13084 L 33147 12311 L 33337 10572 L 35048 13277 L 34668 13470 L 34287 13953 L 33052 15982 l 0 0" />
  <path fill="transparent" stroke="black" stroke-width="1920" stroke-linecap="round" stroke-linejoin="round" d="M 36379 10572 L 38090 11442 L 37615 12601 L 38661 13953 L 38661 14340 L 37140 15789 L 36854 15885 l 0 0" />
  <path fill="transparent" stroke="black" stroke-width="1920" stroke-linecap="round" stroke-linejoin="round" d="M 39706 9510 L 40277 9703 L 41608 10572 L 42083 10959 L 42178 11249 L 41323 12601 L 42178 13470 L 42463 14050 L 40942 15789 l 0 0" />
  <path fill="transparent" stroke="black" stroke-width="1920" stroke-linecap="round" stroke-linejoin="round" d="M 44365 12408 L 46076 12698 l 0 0" />
  <path fill="transparent" stroke="black" stroke-width="1920" stroke-linecap="round" stroke-linejoin="round" d="M 45411 9800 L 46551 11925 L 46551 12311 L 45506 14630 L 45506 14919 l 0 0" />
  <path fill="transparent" stroke="black" stroke-width="1920" stroke-linecap="round" stroke-linejoin="round" d="M 49213 10379 L 49118 12891 L 48833 15016 l 0 0" />
  <path fill="transparent" stroke="black" stroke-width="1920" stroke-linecap="round" stroke-linejoin="round" d="M 51495 11635 L 52065 10766 L 52446 10766 L 52921 11345 L 53491 11732 L 53682 12215 L 53586 12601 L 51780 15499 L 53872 15692 l 0 0" />
  <path fill="transparent" stroke="black" stroke-width="1920" stroke-linecap="round" stroke-linejoin="round" d="M 58150 10283 L 56343 14436 L 56343 14726 L 57579 15499 L 58435 15692 L 59386 14726 L 59671 14050 L 59481 13470 L 58625 12504 l 0 0" />
</svg>
