<svg width="100%" height="100%" viewBox="0 0 65536 21845" xmlns="http://www.w3.org/2000/svg">
  <path fill="transparent" stroke="black" stroke-width="1920" stroke-linecap="round" stroke-linejoin="round" d="M 10045 3617 L 13657 3714 L 21643 4293 L 12802 14436 L 10805 17141 L 14133 17624 L 22024 18300 L 23735 18687 l 0 0" />
  <path fill="transparent" stroke="black" stroke-width="1920" stroke-linecap="round" stroke-linejoin="round" d="M 12802 9510 L 13943 10089 L 20312 11925 l 0 0" />
  <path fill="transparent" stroke="black" stroke-width="1920" stroke-linecap="round" stroke-linejoin="round" d="M 25921 4100 L 33527 4776 l 0 0" />
  <path fill="transparent" stroke="black" stroke-width="1920" stroke-linecap="round" stroke-linejoin="round" d="M 26682 4486 L 26872 13277 L 26777 18300 L 27918 18494 L 29439 18494 L 34668 17914 l 0 0" />
  <path fill="transparent" stroke="black" stroke-width="1920" stroke-linecap="round" stroke-linejoin="round" d="M 27728 11345 L 34953 10379 l 0 0" />
  <path fill="transparent" stroke="black" stroke-width="1920" stroke-linecap="round" stroke-linejoin="round" d="M 37520 4680 L 37615 6901 L 37520 17914 l 0 0" />
  <path fill="transparent" stroke="black" stroke-width="1920" stroke-linecap="round" stroke-linejoin="round" d="M 37330 4583 L 43224 4486 L 45125 4680 L 46551 5163 L 46837 5452 L 47027 6129 L 47027 7481 L 46837 8351 L 46551 8834 L 45886 9413 L 43604 10089 L 40277 10766 L 39041 10862 l 0 0" />
  <path fill="transparent" stroke="black" stroke-width="1920" stroke-linecap="round" stroke-linejoin="round" d="M 43034 9896 L 45601 16272 L 46837 18687 l 0 0" />
  <path fill="transparent" stroke="black" stroke-width="1920" stroke-linecap="round" stroke-linejoin="round" d="M 58815 5356 L 58530 5163 L 55773 5066 L 54157 5452 L 53586 5839 L 52731 6515 L 51875 7578 L 51305 9510 L 51305 11055 L 52255 15499 L 52541 16175 L 54252 17817 L 55583 18300 L 57579 18300 L 60051 17238 L 60717 16755 L 61382 15885 L 62428 13567 L 62808 11732 L 62903 9317 L 62713 8157 L 62143 6418 L 61572 5646 L 61287 5356 L 60146 4969 L 59291 4969 l 0 0" />
</svg>