<svg width="100%" height="100%" viewBox="0 0 65536 21845" xmlns="http://www.w3.org/2000/svg">
  <path fill="transparent" stroke="black" stroke-width="1920" stroke-linecap="round" stroke-linejoin="round" d="M 20781 17430 L 21288 15886 L 23441 11767 L 26608 6233 L 26608 4689 L 26734 4431 L 28381 7391 L 31041 13054 L 31547 15242 L 31674 16658 L 32181 18202 l 0 0" />
  <path fill="transparent" stroke="black" stroke-width="1920" stroke-linecap="round" stroke-linejoin="round" d="M 40793 8936 L 40287 9579 L 39654 9965 L 37754 10352 L 36487 10352 L 35727 9708 L 34460 7391 L 34587 5976 L 34840 5204 L 35220 4431 L 35980 3788 L 36614 3659 L 37754 3788 L 39400 4431 L 39907 5075 L 40540 7005 L 40540 7520 L 41427 11639 L 41427 12282 L 41680 13054 L 42060 15886 L 42567 18074 l 0 0" />
</svg>