<svg width="100%" height="100%" viewBox="0 0 65536 21845" xmlns="http://www.w3.org/2000/svg">
  <path fill="transparent" stroke="black" stroke-width="1920" stroke-linecap="round" stroke-linejoin="round" d="M 20275 3144 L 17488 2501 L 16981 2630 L 14955 3788 L 14195 4560 L 13308 5847 L 12675 7134 L 12422 8678 L 12422 9451 L 13055 13312 L 13688 15500 L 14448 17173 L 14828 17430 L 16601 17945 L 17235 18331 L 18755 18331 l 0 0" />
  <path fill="transparent" stroke="black" stroke-width="1920" stroke-linecap="round" stroke-linejoin="round" d="M 23061 3144 L 23568 4946 L 24834 8292 L 29394 17945 l 0 0" />
  <path fill="transparent" stroke="black" stroke-width="1920" stroke-linecap="round" stroke-linejoin="round" d="M 29901 3144 L 27494 7649 L 25214 12926 L 24454 15371 L 22934 17430 l 0 0" />
  <path fill="transparent" stroke="black" stroke-width="1920" stroke-linecap="round" stroke-linejoin="round" d="M 33447 2630 L 34207 4560 L 35094 7778 L 37754 14856 L 38387 16143 L 38640 17816 l 0 0" />
  <path fill="transparent" stroke="black" stroke-width="1920" stroke-linecap="round" stroke-linejoin="round" d="M 39527 3016 L 39400 3659 L 34840 12797 L 33574 16014 L 32054 18588 l 0 0" />
  <path fill="transparent" stroke="black" stroke-width="1920" stroke-linecap="round" stroke-linejoin="round" d="M 43200 2758 L 43453 17945 l 0 0" />
</svg>