<svg width="100%" height="100%" viewBox="0 0 65536 21845" xmlns="http://www.w3.org/2000/svg">
  <path fill="transparent" stroke="black" stroke-width="1920" stroke-linecap="round" stroke-linejoin="round" d="M 20655 7520 L 18375 10223 L 17235 10995 L 16601 10995 L 15588 10609 L 14068 9579 L 13308 8550 L 12928 6748 L 13308 5204 L 13815 4174 L 14955 3402 L 16855 3273 L 18755 3659 L 20655 5332 L 21288 9708 L 20781 11381 L 19515 13054 L 17868 14213 L 16348 15242 L 15335 15500 L 13562 16272 L 16855 18460 L 17488 19103 L 18375 20390 l 0 0" />
  <path fill="transparent" stroke="black" stroke-width="1920" stroke-linecap="round" stroke-linejoin="round" d="M 24961 4431 L 25974 3917 L 27368 3530 L 28254 3530 L 29774 4174 L 30914 4946 L 31294 5718 L 31927 7520 L 31927 9708 L 31674 10995 L 31294 12025 L 30914 12668 L 29901 13569 L 27748 15113 L 27241 15242 L 26101 15886 L 25341 15886 L 25848 16014 L 29521 18460 L 30534 20004 L 30787 20133 l 0 0" />
  <path fill="transparent" stroke="black" stroke-width="1920" stroke-linecap="round" stroke-linejoin="round" d="M 41680 3917 L 41047 3659 L 39654 3917 L 38767 4431 L 37627 5718 L 36867 7005 L 35980 9579 L 35980 12025 L 36234 12668 L 36614 13054 L 37500 13569 L 39274 14084 L 41807 14084 L 42440 16529 L 43200 18460 L 43960 19747 l 0 0" />
</svg>