<svg width="100%" height="100%" viewBox="0 0 65536 21845" xmlns="http://www.w3.org/2000/svg">
  <path fill="transparent" stroke="black" stroke-width="1920" stroke-linecap="round" stroke-linejoin="round" d="M 20148 3273 L 19008 2887 L 15462 4045 L 14195 5847 L 12675 8550 L 12042 11896 L 12042 12797 L 12802 14599 L 14322 16272 L 15462 17044 L 17361 17816 L 19388 18074 l 0 0" />
  <path fill="transparent" stroke="black" stroke-width="1920" stroke-linecap="round" stroke-linejoin="round" d="M 25088 2758 L 28761 10995 L 32434 17816 L 32687 18588 l 0 0" />
  <path fill="transparent" stroke="black" stroke-width="1920" stroke-linecap="round" stroke-linejoin="round" d="M 32434 3144 L 26101 14213 L 23821 18974 l 0 0" />
  <path fill="transparent" stroke="black" stroke-width="1920" stroke-linecap="round" stroke-linejoin="round" d="M 36994 2372 L 37374 3273 L 37754 3659 L 40160 7520 L 44467 16143 L 44847 17301 l 0 0" />
  <path fill="transparent" stroke="black" stroke-width="1920" stroke-linecap="round" stroke-linejoin="round" d="M 44340 1600 L 41047 8936 L 37880 14599 L 36740 17173 l 0 0" />
</svg>