<svg width="100%" height="100%" viewBox="0 0 65536 21845" xmlns="http://www.w3.org/2000/svg">
  <path fill="transparent" stroke="black" stroke-width="1920" stroke-linecap="round" stroke-linejoin="round" d="M 19895 6619 L 19641 7263 L 18755 8164 L 17868 8421 L 15588 8550 L 14955 8292 L 14575 7520 L 14195 6362 L 14195 5332 L 14068 5075 L 14322 3402 L 15208 1986 L 15462 1857 L 16728 1729 L 18248 2115 L 19641 3530 L 20021 4174 L 20528 6233 L 20655 8035 L 20655 9708 L 20275 10995 L 19515 11767 L 17868 12797 L 14575 14213 L 14702 14727 L 16728 17173 L 18501 18974 L 19008 19747 L 19261 20519 l 0 0" />
  <path fill="transparent" stroke="black" stroke-width="1920" stroke-linecap="round" stroke-linejoin="round" d="M 23694 3659 L 23821 2887 L 24454 1986 L 25214 1214 L 25974 1214 L 28001 1857 L 29014 2372 L 29647 2887 L 30661 4817 L 30661 7520 L 30534 8164 L 29267 10223 L 27874 11639 L 25721 12411 L 23694 12926 L 24454 13312 L 27114 15242 L 28381 16787 L 29647 19361 l 0 0" />
  <path fill="transparent" stroke="black" stroke-width="1920" stroke-linecap="round" stroke-linejoin="round" d="M 39780 2887 L 39020 2243 L 38514 2243 L 36994 2630 L 35727 3402 L 35347 3788 L 34714 5075 L 34587 5847 L 34587 7134 L 34840 7778 L 35220 8164 L 36360 8678 L 38514 8807 L 39274 8550 L 37120 9065 L 35474 9837 L 34840 10480 L 34587 11124 L 34587 11896 L 34840 12411 L 35600 13183 L 37120 13569 L 40160 13698 L 40413 13826 L 40287 14341 L 40413 17430 L 41553 19875 l 0 0" />
</svg>