<svg width="100%" height="100%" viewBox="0 0 65536 21845" xmlns="http://www.w3.org/2000/svg">
  <path fill="transparent" stroke="black" stroke-width="1920" stroke-linecap="round" stroke-linejoin="round" d="M 18628 3530 L 18628 5847 L 18248 8164 L 18248 12282 L 19135 14341 L 20148 15371 L 20781 15757 L 21795 16272 L 22554 16400 L 24201 16272 L 25088 16014 L 26354 15242 L 27494 13054 L 27874 12025 L 27874 10609 L 27621 8550 L 27114 7263 L 26608 6877 L 25974 6748 L 25468 6877 L 24708 7263 L 24581 7520 L 24454 8035 L 24581 9451 L 24834 10223 L 25468 11252 L 25848 11639 L 27114 12282 l 0 0" />
  <path fill="transparent" stroke="black" stroke-width="1920" stroke-linecap="round" stroke-linejoin="round" d="M 32181 7134 L 33067 6748 L 36234 6233 L 37754 7005 L 38134 7649 L 38007 10094 L 37627 10609 L 35727 11252 L 34840 11381 L 37374 11896 L 38134 12282 L 38767 13312 L 38767 13698 L 38134 14856 L 36487 16272 L 35347 16787 L 32687 17044 L 31167 16658 L 30787 15886 L 31167 15886 L 33701 17945 L 34460 19489 L 34460 20261 l 0 0" />
</svg>