<svg width="100%" height="100%" viewBox="0 0 65536 21845" xmlns="http://www.w3.org/2000/svg">
  <path fill="transparent" stroke="black" stroke-width="1920" stroke-linecap="round" stroke-linejoin="round" d="M 15462 3273 L 15715 8292 L 15588 14856 L 15968 17559 l 0 0" />
  <path fill="transparent" stroke="black" stroke-width="1920" stroke-linecap="round" stroke-linejoin="round" d="M 15715 3659 L 16221 4689 L 16981 5590 L 17361 5718 L 19008 5847 L 20528 5461 L 21035 4946 L 21668 3917 L 21668 3659 L 22048 4689 L 22428 5075 L 23314 5461 L 24708 5590 L 25974 4689 L 26988 3144 l 0 0" />
  <path fill="transparent" stroke="black" stroke-width="1920" stroke-linecap="round" stroke-linejoin="round" d="M 31041 3659 L 31547 5718 L 31801 10866 L 32687 17945 l 0 0" />
  <path fill="transparent" stroke="black" stroke-width="1920" stroke-linecap="round" stroke-linejoin="round" d="M 31167 3530 L 31421 4045 L 33067 5718 L 34840 5847 L 35600 5718 L 36360 5332 L 37374 4303 L 38387 2501 l 0 0" />
</svg>